<?xml version="1.0" encoding="UTF-8" standalone="no"?>
<!-- Created with Inkscape (http://www.inkscape.org/) -->

<svg
   width="210mm"
   height="210mm"
   viewBox="0 0 210 210"
   version="1.1"
   id="svg235"
   inkscape:version="1.2.2 (b0a8486541, 2022-12-01)"
   sodipodi:docname="wisemapping.svg"
   xmlns:inkscape="http://www.inkscape.org/namespaces/inkscape"
   xmlns:sodipodi="http://sodipodi.sourceforge.net/DTD/sodipodi-0.dtd"
   xmlns="http://www.w3.org/2000/svg"
   xmlns:svg="http://www.w3.org/2000/svg">
  <sodipodi:namedview
     id="namedview237"
     pagecolor="#ffffff"
     bordercolor="#000000"
     borderopacity="0.25"
     inkscape:showpageshadow="2"
     inkscape:pageopacity="0.0"
     inkscape:pagecheckerboard="0"
     inkscape:deskcolor="#d1d1d1"
     inkscape:document-units="mm"
     showgrid="false"
     inkscape:zoom="0.69664703"
     inkscape:cx="511.73691"
     inkscape:cy="561.25984"
     inkscape:window-width="1920"
     inkscape:window-height="1011"
     inkscape:window-x="0"
     inkscape:window-y="0"
     inkscape:window-maximized="1"
     inkscape:current-layer="layer1" />
  <defs
     id="defs232">
    <mask
       id="1f1ltfoetb"
       fill="#ffffff">
      <path
         d="m 56.588,17.911 c 0,2.794 -1.034,5.471 -2.876,7.446 -1.84,1.975 -4.337,3.084 -6.941,3.084 -2.604,0 -5.101,-1.109 -6.941,-3.084 -1.842,-1.975 -2.876,-4.652 -2.876,-7.446 z"
         id="path5" />
    </mask>
    <mask
       id="i08j30ef6a"
       fill="#ffffff">
      <path
         d="m 32.334,17.911 c 0,2.794 -1.033,5.471 -2.876,7.446 -1.841,1.975 -4.337,3.084 -6.941,3.084 -2.604,0 -5.1,-1.109 -6.941,-3.084 C 13.734,23.382 12.7,20.705 12.7,17.911 Z"
         id="path2" />
    </mask>
  </defs>
  <g
     inkscape:label="Calque 1"
     inkscape:groupmode="layer"
     id="layer1">
    <path
       fill="#ffcb00"
       stroke="#000000"
       stroke-linejoin="round"
       stroke-width="6.84946"
       d="M 103.18972,173.57285 C 95.28078,149.52669 84.737196,152.53571 55.727568,131.49428 H 148.0217 c -25.24718,18.79938 -39.55343,18.03241 -44.83198,42.07857 z"
       id="path8" />
    <path
       fill="#ffcb00"
       stroke="#000000"
       stroke-width="6.84946"
       d="m 173.54273,89.169149 c 0,14.699101 -7.64411,28.516731 -20.9319,38.850271 -13.2605,10.3243 -31.79979,16.85414 -52.4761,16.85414 -20.680592,0 -39.224399,-6.52984 -52.480396,-16.85414 C 34.366328,117.68588 26.7132,103.86825 26.7132,89.169149 c 0,-14.708105 7.653128,-28.516498 20.941134,-38.854546 13.255997,-10.324525 31.795065,-16.85888 52.466866,-16.85888 20.68984,0 39.22913,6.534355 52.48963,16.85888 13.27877,10.338048 20.94092,24.146441 20.94092,38.854546 z"
       id="path10" />
    <path
       fill="#b3d4ff"
       stroke="#000000"
       stroke-width="3"
       d="m 32.334,17.911 c 0,2.794 -1.034,5.471 -2.875,7.446 -1.841,1.975 -4.339,3.084 -6.942,3.084 -2.603,0 -5.099,-1.109 -6.941,-3.084 C 13.734,23.382 12.7,20.705 12.7,17.911 Z"
       mask="url(#i08j30ef6a)"
       id="path12"
       transform="matrix(4.5663029,0,0,4.5663029,-55.005344,-16.399244)" />
    <path
       fill="#b3d4ff"
       stroke="#000000"
       stroke-width="3"
       d="m 56.588,17.911 c 0,2.794 -1.034,5.471 -2.876,7.446 -1.84,1.975 -4.337,3.084 -6.94,3.084 -2.604,0 -5.101,-1.109 -6.941,-3.084 -1.842,-1.975 -2.877,-4.652 -2.877,-7.446 z"
       mask="url(#1f1ltfoetb)"
       id="path14"
       transform="matrix(4.5663029,0,0,4.5663029,-55.005344,-16.399244)" />
    <path
       stroke="#000000"
       stroke-width="6.84946"
       d="m 87.367342,72.155213 c 10.548323,-9.022969 21.100928,-9.022969 31.644508,0"
       id="path16" />
    <path
       fill="#ffcb00"
       d="m 104.17146,166.05652 c -7.904197,-24.04141 -53.717943,-34.56224 -45.80923,-40.56695 7.908922,-6.00924 84.38544,-9.00923 89.65947,-3.0045 5.27856,6.00922 -36.16984,16.98193 -43.85024,43.57145 z"
       id="path18"
       style="stroke-width:4.56629" />
  </g>
</svg>
